PathFileType	4	(X/Y/Z)	c:/Users/goper/Files/vsCode/490R/osim_files/A03/A03_Static01.trc
DataRate	CameraRate	NumFrames	NumMarkers	Units                	OrigDataRate	OrigDataStartFrame	OrigNumFrames
250.00	250.00	7	36	mm	250.0	1	1674
                Frame#	Time	LPSIS			LASIS			LTH1			LTH2			LTH3			LTH4			LLFE			LMFE			LSH1			LSH2			LSH3			LSH4			LLMAL			LMMAL			LCAL			LMTP5			LTOE			LMTP1			RPSIS			RASIS			RTH1			RTH2			RTH3			RTH4			RLFE			RMFE			RSH1			RSH2			RSH3			RSH4			RLMAL			RMMAL			RCAL			RMTP1			RTOE			RMTP5		
		X1	Y1	Z1	X2	Y2	Z2	X3	Y3	Z3	X4	Y4	Z4	X5	Y5	Z5	X6	Y6	Z6	X7	Y7	Z7	X8	Y8	Z8	X9	Y9	Z9	X10	Y10	Z10	X11	Y11	Z11	X12	Y12	Z12	X13	Y13	Z13	X14	Y14	Z14	X15	Y15	Z15	X16	Y16	Z16	X17	Y17	Z17	X18	Y18	Z18	X19	Y19	Z19	X20	Y20	Z20	X21	Y21	Z21	X22	Y22	Z22	X23	Y23	Z23	X24	Y24	Z24	X25	Y25	Z25	X26	Y26	Z26	X27	Y27	Z27	X28	Y28	Z28	X29	Y29	Z29	X30	Y30	Z30	X31	Y31	Z31	X32	Y32	Z32	X33	Y33	Z33	X34	Y34	Z34	X35	Y35	Z35	X36	Y36	Z36

1	0.00000	-344.06799	1069.78223	430.29663	-106.06547	989.03363	316.47296	-174.49371	660.10211	240.95906	-166.62914	617.37451	239.49684	-112.79487	664.09583	252.44434	-114.76640	620.20642	250.60481	-163.40701	560.48096	243.12106	-134.18948	530.11389	394.81647	-221.36884	478.71176	238.35442	-227.43063	430.41620	234.64955	-160.55846	463.06204	236.93765	-176.97276	418.05713	237.53691	-282.46967	105.90785	229.73169	-262.58765	105.51830	322.41776	-349.84070	87.27051	288.75989	-138.89941	41.67588	197.61200	-101.00753	68.31158	263.61365	-126.62354	48.08707	311.32593	-345.09680	1071.25098	499.02206	-110.21444	988.27380	624.18671	-214.99246	661.46246	696.98395	-213.42894	616.74084	693.57629	-154.64481	656.95752	703.95184	-160.03412	613.07648	699.61707	-190.46846	549.12482	688.07831	-129.89558	540.40961	576.64240	-249.67624	488.27078	683.90448	-259.48691	449.96399	699.97034	-191.96732	474.78912	702.20068	-210.95883	433.59219	715.23712	-280.33734	131.06937	700.88983	-229.61781	118.81093	622.93933	-332.14120	88.47639	647.02643	-119.93265	49.09835	630.00519	-94.95046	70.62266	680.75281	-133.16692	40.78512	747.96863
2	0.00400	-344.05402	1069.80737	430.34760	-106.05360	989.03625	316.45218	-174.44624	660.10516	240.90572	-166.58858	617.36462	239.46996	-112.78050	664.08905	252.41228	-114.74372	620.20331	250.57771	-163.34669	560.48029	243.09645	-134.12068	530.09991	394.78204	-221.31581	478.70621	238.32492	-227.42657	430.41702	234.61815	-160.52765	463.04617	236.90543	-176.95906	418.05582	237.50711	-282.45630	105.91351	229.73958	-262.55936	105.51157	322.43079	-349.82672	87.25742	288.76288	-138.73625	41.78096	197.59010	-100.91380	68.35262	263.62308	-126.61668	48.07205	311.32623	-345.06738	1071.29138	499.06802	-110.15134	988.25507	624.17590	-214.88028	661.44977	697.02618	-213.27505	616.72119	693.62799	-154.52373	656.96442	703.99957	-159.90630	613.06262	699.66974	-190.33940	549.11969	688.13483	-129.78088	540.40387	576.68463	-249.54221	488.28442	683.98401	-259.16568	449.88074	700.09717	-191.85124	474.76221	702.23285	-210.84390	433.56277	715.27417	-280.30389	131.08203	700.87262	-229.59473	118.81683	622.95282	-331.95905	88.47648	646.94012	-119.99319	49.03134	630.03156	-94.94538	70.59113	680.76703	-133.16121	40.77444	748.00891
3	0.00800	-344.03015	1069.81775	430.41995	-106.05278	989.01300	316.44034	-174.41414	660.09656	240.91255	-166.56273	617.37720	239.43889	-112.74220	664.10071	252.38885	-114.70945	620.21277	250.54419	-163.31691	560.46570	243.05339	-134.07079	530.05023	394.76318	-221.28702	478.70715	238.29604	-227.35614	430.41357	234.59052	-160.48845	462.99567	236.96379	-176.90428	418.06348	237.47597	-282.45071	105.93339	229.71872	-262.54639	105.50753	322.43564	-349.80423	87.27518	288.76450	-138.90904	41.66630	197.60234	-101.06099	68.19569	263.63895	-126.62770	48.05100	311.33569	-345.02228	1071.30371	499.08984	-110.10976	988.20770	624.16132	-214.73190	661.40796	697.09357	-213.13773	616.68756	693.70251	-154.37703	656.94263	704.04340	-159.81870	613.03320	699.72394	-190.21999	549.09052	688.20868	-129.71315	540.38367	576.71594	-249.42435	488.27228	684.06671	-259.00394	449.87616	700.14612	-191.73018	474.73767	702.29309	-210.74286	433.54309	715.33221	-280.29236	131.09709	700.88519	-229.56961	118.83874	622.95416	-331.94977	88.46311	646.95490	-119.92967	49.03232	630.04126	-94.91547	70.56062	680.77557	-133.19246	40.73993	748.00543
4	0.01200	-344.01501	1069.82166	430.48169	-106.05772	988.99969	316.41263	-174.39180	660.11340	240.87517	-166.51942	617.37610	239.39886	-112.70712	664.11591	252.35553	-114.67347	620.22711	250.50871	-163.27844	560.46039	242.99527	-134.05247	530.01404	394.75659	-221.25587	478.72202	238.26831	-227.44235	430.51883	234.55751	-160.42992	462.98563	236.93982	-176.88081	418.04868	237.45795	-282.44626	105.93729	229.72043	-262.55084	105.47336	322.46432	-349.81519	87.28438	288.74619	-138.90521	41.66805	197.60803	-101.12191	68.12517	263.68503	-126.64347	48.01324	311.35623	-344.97922	1071.31360	499.16342	-110.06116	988.12097	624.15454	-214.56459	661.35712	697.17188	-212.98911	616.66724	693.77893	-154.27785	656.90094	704.09436	-159.70752	612.99341	699.78656	-190.08978	549.05817	688.26074	-129.61375	540.37341	576.74823	-249.28741	488.27380	684.15320	-259.11697	449.97675	700.19031	-191.63136	474.69714	702.36804	-210.65350	433.50320	715.40045	-280.23599	131.08882	700.92798	-229.50549	118.84515	622.96173	-331.93402	88.46598	647.00726	-119.91592	49.00091	630.06775	-94.94088	70.51428	680.79749	-133.16995	40.71890	748.02222
5	0.01600	-344.00357	1069.83264	430.51709	-106.06645	989.02722	316.39612	-174.36423	660.11060	240.86415	-166.48195	617.38403	239.37044	-112.68017	664.09906	252.31700	-114.64248	620.22931	250.46364	-163.23880	560.47137	242.98872	-134.00372	530.00537	394.73306	-221.22470	478.71823	238.24289	-227.27383	430.41428	234.51593	-160.40718	463.04288	236.81659	-176.86581	418.05069	237.43224	-282.43335	105.93996	229.72450	-262.52521	105.45742	322.47556	-349.79584	87.28347	288.77762	-138.89684	41.65224	197.61383	-100.97746	68.18952	263.72571	-126.64171	47.98187	311.37363	-344.95615	1071.29688	499.21204	-110.00404	988.09595	624.14252	-214.43002	661.36176	697.23987	-212.83530	616.63727	693.85236	-154.17068	656.84949	704.15955	-159.53998	612.95050	699.84619	-189.92798	549.05103	688.31409	-129.50130	540.36560	576.79083	-249.14095	488.25235	684.21967	-258.98065	449.97592	700.26343	-191.48116	474.66690	702.42023	-210.55463	433.49728	715.45325	-280.19873	131.09846	700.95752	-229.50525	118.85551	622.95770	-331.90445	88.45846	647.03168	-119.88726	48.98120	630.07031	-94.92484	70.46362	680.82184	-133.15787	40.69867	748.02808
6	0.02000	-343.95081	1069.84155	430.57138	-106.05107	989.02954	316.37830	-174.36212	660.08405	240.82976	-166.46043	617.38501	239.34543	-112.65563	664.11688	252.29036	-114.60894	620.23511	250.42873	-163.18625	560.47064	242.93962	-133.98489	529.99097	394.69550	-221.20676	478.70065	238.21400	-227.26704	430.41272	234.50179	-160.36646	462.97266	236.86626	-176.82491	418.02997	237.39528	-282.45166	105.93282	229.74542	-262.51437	105.43201	322.48291	-349.11188	86.91891	288.41165	-138.90739	41.66053	197.59129	-100.75843	68.43375	263.54623	-126.66105	47.95892	311.38379	-344.90848	1071.33618	499.28598	-109.92896	988.07623	624.12634	-214.28125	661.32642	697.27563	-212.70282	616.63336	693.91302	-154.05951	656.81543	704.19360	-159.39067	612.93121	699.88800	-189.78893	549.01160	688.39435	-129.38731	540.37274	576.81573	-249.00835	488.26337	684.28833	-258.84671	449.97009	700.32318	-191.34500	474.66107	702.47424	-210.47600	433.47705	715.50226	-280.18433	131.09976	700.98499	-229.52295	118.86917	622.96057	-331.91544	88.47890	647.06592	-119.90247	48.94944	630.09491	-94.89957	70.45792	680.84924	-133.15714	40.68958	748.03638
7	0.02400	-343.92847	1069.83582	430.62854	-106.06023	989.02350	316.34393	-174.36652	660.08398	240.82063	-166.44409	617.37537	239.31769	-112.65836	664.12982	252.25366	-114.57402	620.26410	250.38657	-163.14783	560.45233	242.91998	-133.96213	529.97656	394.65958	-221.18304	478.70035	238.19783	-227.21391	430.39685	234.47383	-160.35733	462.96326	236.84341	-176.79828	418.04401	237.37241	-282.67841	106.04845	229.58707	-262.52533	105.44303	322.46994	-349.78510	87.29729	288.77121	-138.90385	41.67377	197.60422	-101.02304	68.14726	263.71198	-126.63412	47.96445	311.37308	-344.82907	1071.33289	499.31314	-109.86046	988.07776	624.11145	-214.14764	661.31512	697.33313	-212.58139	616.63776	693.98474	-153.92010	656.83215	704.25055	-159.27881	612.90540	699.93732	-189.65149	549.02643	688.45642	-129.26982	540.36353	576.86865	-248.89931	488.29092	684.35486	-258.72427	450.12900	700.19000	-191.24091	474.65247	702.51361	-210.17751	433.59052	715.42719	-280.16748	131.10811	700.96143	-229.49005	118.87741	622.98907	-331.88541	88.49058	647.04620	-119.89396	48.95465	630.08093	-94.89890	70.44708	680.84558	-133.16864	40.67767	748.04620
